<?xml version="1.0" encoding="UTF-8" standalone="no"?>
<svg width="42px" height="62px" viewBox="0 0 42 62" version="1.1" xmlns="http://www.w3.org/2000/svg" xmlns:xlink="http://www.w3.org/1999/xlink" xmlns:sketch="http://www.bohemiancoding.com/sketch/ns">
    <!-- Generator: Sketch 3.4.4 (17249) - http://www.bohemiancoding.com/sketch -->
    <title>Point</title>
    <desc>Created with Sketch.</desc>
    <defs>
        <path d="M21.7189339,33.0460738 C15.4544623,33.0460738 10.3762521,27.9165061 10.3762521,21.5896809 C10.3762521,15.2624075 15.4544623,10.1328399 21.7189339,10.1328399 C27.9847364,10.1328399 33.0633903,15.2624075 33.0633903,21.5896809 C33.0633903,27.9165061 27.9847364,33.0460738 21.7189339,33.0460738 L21.7189339,33.0460738 Z M1.4709919,21.5898214 C1.4709919,32.8843741 14.5687748,41.0062309 21.7183777,61.401705 C28.4464171,41.0062294 41.9679285,32.8843741 41.9679285,21.5898214 C41.9679285,10.2945396 32.9008252,1.13945479 21.7183772,1.13945479 C10.5359293,1.13945479 1.4709919,10.2945396 1.4709919,21.5898214 Z" id="path-1"></path>
    </defs>
    <g id="Welcome" stroke="none" stroke-width="1" fill="none" fill-rule="evenodd" sketch:type="MSPage">
        <g id="Desktop" sketch:type="MSArtboardGroup" transform="translate(-827.000000, -1418.000000)">
            <g id="Rectangle-36-Copy-2-+-ADRESSEN-+-Vielsen-+-Point-Copy" sketch:type="MSLayerGroup" transform="translate(686.000000, 1355.000000)">
                <g id="ADRESSEN-+-Vielsen-+-Point-Copy" transform="translate(96.000000, 63.000000)">
                    <g id="Point" transform="translate(44.000000, 0.000000)">
                        <mask id="mask-2" sketch:name="Mask" fill="white">
                            <use xlink:href="#path-1"></use>
                        </mask>
                        <use id="Mask" stroke="#CDA85B" stroke-width="0.316" sketch:type="MSShapeGroup" xlink:href="#path-1"></use>
                        <g id="Wave-lines-" mask="url(#mask-2)">
                            <g transform="translate(-59.769231, -9.789474)">
                                <g id="Group-6" transform="translate(0.000000, 3.263158)">
                                    <path d="M1.16364372,0.428981225 C1.16364372,0.428981225 28.6931984,6.76828563 38.0454251,6.74920283 C47.1860459,6.73202832 64.9307152,0.705681748 74.065668,0.428981225 C83.4141161,0.144647584 101.600891,6.46105263 110.949339,6.74920283 C120.084291,7.03162819 146.969582,0.428981225 146.969582,0.428981225" id="Stroke-4" stroke="#CDA85B" stroke-width="0.331" sketch:type="MSShapeGroup"></path>
                                </g>
                                <g id="Group-9" transform="translate(1.615385, 6.526316)">
                                    <path d="M0.294547908,0.335475531 C0.294547908,0.335475531 27.8241026,6.67477993 37.1763293,6.65569714 C46.3169501,6.63852262 64.0616194,0.612176054 73.1965722,0.335475531 C82.5450202,0.0511418898 100.731795,6.36754694 110.080243,6.65569714 C119.215196,6.9381225 146.100486,0.335475531 146.100486,0.335475531" id="Stroke-7" stroke="#CDA85B" stroke-width="0.331" sketch:type="MSShapeGroup"></path>
                                </g>
                                <g id="Group-12" transform="translate(1.615385, 9.789474)">
                                    <path d="M0.885721997,0.241779009 C0.885721997,0.241779009 28.4152767,6.58108341 37.7675034,6.56200062 C46.9081242,6.5448261 64.6527935,0.518479532 73.7877463,0.241779009 C83.1361943,-0.0425546322 101.322969,6.27385042 110.671417,6.56200062 C119.80637,6.84442598 146.69166,0.241779009 146.69166,0.241779009" id="Stroke-10" stroke="#CDA85B" stroke-width="0.331" sketch:type="MSShapeGroup"></path>
                                </g>
                                <g id="Group-15" transform="translate(1.615385, 13.052632)">
                                    <path d="M1.13757085,0.148082487 C1.13757085,0.148082487 28.6671255,6.48738689 38.0193522,6.46830409 C47.159973,6.45112958 64.9046424,0.42478301 74.0395951,0.148082487 C83.3880432,-0.136251154 101.574818,6.18015389 110.923266,6.46830409 C120.058219,6.75072946 146.943509,0.148082487 146.943509,0.148082487" id="Stroke-13" stroke="#CDA85B" stroke-width="0.331" sketch:type="MSShapeGroup"></path>
                                </g>
                                <g id="Group-18" transform="translate(1.615385, 16.315789)">
                                    <path d="M1.32593792,0.0545767929 C1.32593792,0.0545767929 28.8554926,6.39388119 38.2077193,6.3747984 C47.3483401,6.35762388 65.0930094,0.331277316 74.2279622,0.0545767929 C83.5764103,-0.229756848 101.763185,6.0866482 111.111633,6.3747984 C120.246586,6.65722376 147.131876,0.0545767929 147.131876,0.0545767929" id="Stroke-16" stroke="#CDA85B" stroke-width="0.331" sketch:type="MSShapeGroup"></path>
                                </g>
                                <g id="Group-21" transform="translate(1.615385, 17.947368)">
                                    <path d="M1.13757085,1.59245922 C1.13757085,1.59245922 28.6671255,7.93176362 38.0193522,7.91268082 C47.159973,7.89550631 64.9046424,1.86915974 74.0395951,1.59245922 C83.3880432,1.30812558 101.574818,7.62453062 110.923266,7.91268082 C120.058219,8.19510619 146.943509,1.59245922 146.943509,1.59245922" id="Stroke-19" stroke="#CDA85B" stroke-width="0.331" sketch:type="MSShapeGroup"></path>
                                </g>
                                <g id="Group-24" transform="translate(1.615385, 21.210526)">
                                    <path d="M1.13757085,1.4987627 C1.13757085,1.4987627 28.6671255,7.8380671 38.0193522,7.8189843 C47.159973,7.80180979 64.9046424,1.77546322 74.0395951,1.4987627 C83.3880432,1.21442906 101.574818,7.5308341 110.923266,7.8189843 C120.058219,8.10140966 146.943509,1.4987627 146.943509,1.4987627" id="Stroke-22" stroke="#CDA85B" stroke-width="0.331" sketch:type="MSShapeGroup"></path>
                                </g>
                                <g id="Group-27" transform="translate(1.615385, 24.473684)">
                                    <path d="M1.13757085,1.40506617 C1.13757085,1.40506617 28.6671255,7.74437058 38.0193522,7.72528778 C47.159973,7.70811327 64.9046424,1.6817667 74.0395951,1.40506617 C83.3880432,1.12073253 101.574818,7.43713758 110.923266,7.72528778 C120.058219,8.00771314 146.943509,1.40506617 146.943509,1.40506617" id="Stroke-25" stroke="#CDA85B" stroke-width="0.331" sketch:type="MSShapeGroup"></path>
                                </g>
                                <g id="Group-30" transform="translate(1.615385, 27.736842)">
                                    <path d="M1.13757085,1.31156048 C1.13757085,1.31156048 28.6671255,7.65086488 38.0193522,7.63178209 C47.159973,7.61460757 64.9046424,1.588261 74.0395951,1.31156048 C83.3880432,1.02722684 101.574818,7.34363189 110.923266,7.63178209 C120.058219,7.91420745 146.943509,1.31156048 146.943509,1.31156048" id="Stroke-28" stroke="#CDA85B" stroke-width="0.331" sketch:type="MSShapeGroup"></path>
                                </g>
                                <g id="Group-33" transform="translate(1.615385, 31.000000)">
                                    <path d="M1.13757085,1.21786396 C1.13757085,1.21786396 28.6671255,7.55716836 38.0193522,7.53808556 C47.159973,7.52091105 64.9046424,1.49456448 74.0395951,1.21786396 C83.3880432,0.933530317 101.574818,7.24993536 110.923266,7.53808556 C120.058219,7.82051093 146.943509,1.21786396 146.943509,1.21786396" id="Stroke-31" stroke="#CDA85B" stroke-width="0.331" sketch:type="MSShapeGroup"></path>
                                </g>
                                <g id="Group-36" transform="translate(1.615385, 34.263158)">
                                    <path d="M1.32593792,1.12416744 C1.32593792,1.12416744 28.8554926,7.46347184 38.2077193,7.44438904 C47.3483401,7.42721453 65.0930094,1.40086796 74.2279622,1.12416744 C83.5764103,0.839833795 101.763185,7.15623884 111.111633,7.44438904 C120.246586,7.7268144 147.131876,1.12416744 147.131876,1.12416744" id="Stroke-34" stroke="#CDA85B" stroke-width="0.331" sketch:type="MSShapeGroup"></path>
                                </g>
                                <g id="Group-39" transform="translate(1.615385, 37.526316)">
                                    <path d="M1.32593792,1.03047091 C1.32593792,1.03047091 28.8554926,7.36977532 38.2077193,7.35069252 C47.3483401,7.33351801 65.0930094,1.30717144 74.2279622,1.03047091 C83.5764103,0.746137273 101.763185,7.06254232 111.111633,7.35069252 C120.246586,7.63311788 147.131876,1.03047091 147.131876,1.03047091" id="Stroke-37" stroke="#CDA85B" stroke-width="0.331" sketch:type="MSShapeGroup"></path>
                                </g>
                                <g id="Group-42" transform="translate(1.615385, 40.789474)">
                                    <path d="M1.32593792,0.93696522 C1.32593792,0.93696522 28.8554926,7.27626962 38.2077193,7.25718683 C47.3483401,7.24001231 65.0930094,1.21366574 74.2279622,0.93696522 C83.5764103,0.652631579 101.763185,6.96903663 111.111633,7.25718683 C120.246586,7.53961219 147.131876,0.93696522 147.131876,0.93696522" id="Stroke-40" stroke="#CDA85B" stroke-width="0.331" sketch:type="MSShapeGroup"></path>
                                </g>
                                <g id="Group-45" transform="translate(1.615385, 44.052632)">
                                    <path d="M1.13757085,0.843268698 C1.13757085,0.843268698 28.6671255,7.1825731 38.0193522,7.1634903 C47.159973,7.14631579 64.9046424,1.11996922 74.0395951,0.843268698 C83.3880432,0.558935057 101.574818,6.8753401 110.923266,7.1634903 C120.058219,7.44591567 146.943509,0.843268698 146.943509,0.843268698" id="Stroke-43" stroke="#CDA85B" stroke-width="0.331" sketch:type="MSShapeGroup"></path>
                                </g>
                                <g id="Group-48" transform="translate(1.615385, 47.315789)">
                                    <path d="M0.885721997,0.749572176 C0.885721997,0.749572176 28.4152767,7.08887658 37.7675034,7.06979378 C46.9081242,7.05261927 64.6527935,1.0262727 73.7877463,0.749572176 C83.1361943,0.465238535 101.322969,6.78164358 110.671417,7.06979378 C119.80637,7.35221914 146.69166,0.749572176 146.69166,0.749572176" id="Stroke-46" stroke="#CDA85B" stroke-width="0.331" sketch:type="MSShapeGroup"></path>
                                </g>
                                <g id="Group-51" transform="translate(1.615385, 50.578947)">
                                    <path d="M0.885721997,0.656066482 C0.885721997,0.656066482 28.4152767,6.99537088 37.7675034,6.97628809 C46.9081242,6.95911357 64.6527935,0.932767005 73.7877463,0.656066482 C83.1361943,0.371732841 101.322969,6.68813789 110.671417,6.97628809 C119.80637,7.25871345 146.69166,0.656066482 146.69166,0.656066482" id="Stroke-49" stroke="#CDA85B" stroke-width="0.331" sketch:type="MSShapeGroup"></path>
                                </g>
                                <g id="Group-54" transform="translate(1.615385, 53.842105)">
                                    <path d="M1.32593792,0.56236996 C1.32593792,0.56236996 28.8554926,6.90167436 38.2077193,6.88259157 C47.3483401,6.86541705 65.0930094,0.839070483 74.2279622,0.56236996 C83.5764103,0.278036319 101.763185,6.59444137 111.111633,6.88259157 C120.246586,7.16501693 147.131876,0.56236996 147.131876,0.56236996" id="Stroke-52" stroke="#CDA85B" stroke-width="0.331" sketch:type="MSShapeGroup"></path>
                                </g>
                                <g id="Group-57" transform="translate(1.615385, 57.105263)">
                                    <path d="M1.13757085,0.468673438 C1.13757085,0.468673438 28.6671255,6.80797784 38.0193522,6.78889504 C47.159973,6.77172053 64.9046424,0.745373961 74.0395951,0.468673438 C83.3880432,0.184339797 101.574818,6.50074484 110.923266,6.78889504 C120.058219,7.07132041 146.943509,0.468673438 146.943509,0.468673438" id="Stroke-55" stroke="#CDA85B" stroke-width="0.331" sketch:type="MSShapeGroup"></path>
                                </g>
                                <g id="Group-60" transform="translate(1.615385, 60.368421)">
                                    <path d="M1.13757085,0.374976916 C1.13757085,0.374976916 28.6671255,6.71428132 38.0193522,6.69519852 C47.159973,6.67802401 64.9046424,0.651677439 74.0395951,0.374976916 C83.3880432,0.0906432749 101.574818,6.40704832 110.923266,6.69519852 C120.058219,6.97762388 146.943509,0.374976916 146.943509,0.374976916" id="Stroke-58" stroke="#CDA85B" stroke-width="0.331" sketch:type="MSShapeGroup"></path>
                                </g>
                                <g id="Group-63" transform="translate(1.615385, 63.631579)">
                                    <path d="M1.13757085,0.281471222 C1.13757085,0.281471222 28.6671255,6.62077562 38.0193522,6.60169283 C47.159973,6.58451831 64.9046424,0.558171745 74.0395951,0.281471222 C83.3880432,-0.00286241921 101.574818,6.31354263 110.923266,6.60169283 C120.058219,6.88411819 146.943509,0.281471222 146.943509,0.281471222" id="Stroke-61" stroke="#CDA85B" stroke-width="0.331" sketch:type="MSShapeGroup"></path>
                                </g>
                                <g id="Group-66" transform="translate(1.615385, 66.894737)">
                                    <path d="M1.32593792,0.1877747 C1.32593792,0.1877747 28.8554926,6.5270791 38.2077193,6.50799631 C47.3483401,6.49082179 65.0930094,0.464475223 74.2279622,0.1877747 C83.5764103,-0.0965589412 101.763185,6.21984611 111.111633,6.50799631 C120.246586,6.79042167 147.131876,0.1877747 147.131876,0.1877747" id="Stroke-64" stroke="#CDA85B" stroke-width="0.331" sketch:type="MSShapeGroup"></path>
                                </g>
                                <g id="Group-69" transform="translate(1.615385, 70.157895)">
                                    <path d="M1.32593792,0.0940781779 C1.32593792,0.0940781779 28.8554926,6.43338258 38.2077193,6.41429978 C47.3483401,6.39712527 65.0930094,0.370778701 74.2279622,0.0940781779 C83.5764103,-0.190255463 101.763185,6.12614958 111.111633,6.41429978 C120.246586,6.69672515 147.131876,0.0940781779 147.131876,0.0940781779" id="Stroke-67" stroke="#CDA85B" stroke-width="0.331" sketch:type="MSShapeGroup"></path>
                                </g>
                            </g>
                        </g>
                    </g>
                </g>
            </g>
        </g>
    </g>
</svg>